<?xml version="1.0" encoding="utf-8"?>
<!-- Generator: Adobe Illustrator 16.0.0, SVG Export Plug-In . SVG Version: 6.00 Build 0)  -->
<!DOCTYPE svg PUBLIC "-//W3C//DTD SVG 1.1//EN" "http://www.w3.org/Graphics/SVG/1.1/DTD/svg11.dtd">
<svg version="1.1" id="Layer_1" xmlns="http://www.w3.org/2000/svg" xmlns:xlink="http://www.w3.org/1999/xlink" x="0px" y="0px"
	 width="100px" height="100px" viewBox="0 0 100 100" enable-background="new 0 0 100 100" xml:space="preserve">
<path fill="#00BCD4" d="M51.473,13.283h15.73l5.666-8.5H15.122l-5.667,8.5h15.884c1.64,0.073,13.11,0.887,17.224,9.346H15
	l-5.667,8.5h34.623c-0.012,0.161-0.023,0.32-0.039,0.483c0,0-0.163,18.603-31.375,15.38V51l0.032,4.387l33.683,39.832h12.794v-1.771
	L26.759,53.95v-0.567c0,0,25.414,0.405,29.622-22.094c0,0,0.008-0.056,0.02-0.16h10.681l5.668-8.5H55.943
	C55.305,19.506,54.012,16.069,51.473,13.283z"/>
</svg>
