<?xml version="1.0" encoding="utf-8"?>
<!-- Generator: Adobe Illustrator 16.0.0, SVG Export Plug-In . SVG Version: 6.00 Build 0)  -->
<!DOCTYPE svg PUBLIC "-//W3C//DTD SVG 1.1//EN" "http://www.w3.org/Graphics/SVG/1.1/DTD/svg11.dtd">
<svg version="1.1"
	 id="Layer_1" xmlns:dc="http://purl.org/dc/elements/1.1/" xmlns:cc="http://creativecommons.org/ns#" xmlns:rdf="http://www.w3.org/1999/02/22-rdf-syntax-ns#" xmlns:svg="http://www.w3.org/2000/svg" xmlns:sodipodi="http://sodipodi.sourceforge.net/DTD/sodipodi-0.dtd" xmlns:inkscape="http://www.inkscape.org/namespaces/inkscape" sodipodi:docname="Yahoo_Logo.svg" inkscape:version="0.47 r22583" sodipodi:version="0.32" inkscape:output_extension="org.inkscape.output.svg.inkscape"
	 xmlns="http://www.w3.org/2000/svg" xmlns:xlink="http://www.w3.org/1999/xlink" x="0px" y="0px" width="300px" height="300px"
	 viewBox="0 0 300 300" enable-background="new 0 0 300 300" xml:space="preserve">
<defs>
	
	
		<inkscape:perspective  inkscape:vp_z="800 : 75.830566 : 1" inkscape:vp_y="0 : 1000 : 0" sodipodi:type="inkscape:persp3d" inkscape:vp_x="0 : 75.830566 : 1" id="perspective2840" inkscape:persp3d-origin="400 : 50.553711 : 1">
		</inkscape:perspective>
</defs>
<sodipodi:namedview  showgrid="false" objecttolerance="10.0" borderopacity="1.0" guidetolerance="10.0" pagecolor="#ffffff" inkscape:cy="125.42243" inkscape:cx="302.29556" inkscape:zoom="1.19" bordercolor="#666666" gridtolerance="10.0" id="base" inkscape:window-maximized="1" inkscape:window-height="738" inkscape:pageopacity="0.0" inkscape:pageshadow="2" inkscape:window-width="1280" inkscape:current-layer="Layer_1" inkscape:window-y="-8" inkscape:window-x="-8">
	</sodipodi:namedview>
<path id="path2217" fill="#FFFFFF" d="M290.575,99.271c-5.201,0.514-26.853,5.364-34.129,6.925
	c-7.793,2.072-78.984,57.074-83.661,70.58c-1.037,4.674-1.557,11.865-1.557,18.623l-0.521,10.916c0,7.789,2.164,20.35,3.199,27.103
	c4.682,1.043,38.556,0.132,44.789,1.168l-0.767,13.97c-6.092-0.443-49.106-0.34-73.681-0.34c-12.475,0-52.576,1.376-64.896,1.005
	l2.329-13.285c6.756-0.524,34.729,1.206,40.878-5.284c3.055-3.221,2.082-6.673,2.082-25.377v-8.831c0-4.157,0-11.956-1.043-19.233
	c-2.596-7.797-65.301-86.09-81.409-98.558c-4.681-1.558-33.99-4.489-41.264-6.052L0.563,60.633c3.629-1.82,36.221,0.441,67.85-0.729
	c20.786-0.768,68.215,0,74.066,0.697l-1.5,10.547c-6.233,1.561-36.266,2.139-44.062,4.215c20.269,30.139,52.313,68.94,62.707,84.011
	c5.72-8.313,55.954-42.874,57.512-54.825c-7.798-1.564-33.606-5.278-37.766-5.278l-2.469-13.606c7.075-1.107,44.278,0,62.774,0
	c15.962,0,50.07,0,59.762,0.793L290.575,99.271"/>
</svg>
